#!OML:ASF H:\Dans Jumps\Project 1\Capture day 1\Session 1\subject.ASF
:FULLY-SPECIFIED
:DEGREES
547
root 0.637206 17.7378 6.86999 6.97945 -0.805744 -1.28388
lowerback -1.59806 -0.165212 -0.462612
upperback 2.77157 -0.257872 1.58629
thorax 3.75694 -0.166782 1.88098
lowerneck -12.8455 0.079466 -1.41743
upperneck 26.902 0.424341 0.116696
head 10.7637 0.0623169 0.339301
rclavicle -1.68967e-015 1.11319e-014
rhumerus -27.85 -17.4088 -77.6242
rradius 22.6757
rwrist 35.2612
rhand -19.6202 -25.5194
rfingers 7.12502
rthumb 6.70651 -55.3932
lclavicle -1.68967e-015 1.11319e-014
lhumerus -22.6339 3.75233 85.5491
lradius 17.7393
lwrist 2.44241
lhand -25.8103 -5.7417
lfingers 7.12502
lthumb 0.728993 24.2368
rfemur -13.1919 -3.034 19.5644
rtibia 20.2776
rfoot -12.5857 0.531104
rtoes 12.8162
lfemur -12.9197 7.01348 -18.0763
ltibia 17.4503
lfoot -9.23361 3.72795
ltoes -0.250209
548
root 0.637641 17.7376 6.86898 6.96237 -0.802544 -1.28022
lowerback -1.60337 -0.168351 -0.463522
upperback 2.75793 -0.261918 1.58696
thorax 3.74597 -0.16869 1.88195
lowerneck -12.7743 0.0772032 -1.43215
upperneck 26.7132 0.422132 0.118077
head 10.6793 0.0612417 0.341379
rclavicle 4.47266e-016 -1.76918e-014
rhumerus -27.828 -17.4017 -77.6197
rradius 22.6773
rwrist 35.2483
rhand -19.6384 -25.5046
rfingers 7.12502
rthumb 6.68888 -55.379
lclavicle 4.47266e-016 -1.76918e-014
lhumerus -22.6479 3.67758 85.5636
lradius 17.7678
lwrist 2.48252
lhand -25.8389 -5.82258
lfingers 7.12502
lthumb 0.701342 24.156
rfemur -13.1759 -3.02804 19.5577
rtibia 20.2786
rfoot -12.5885 0.519941
rtoes 12.8203
lfemur -12.9014 7.01533 -18.0792
ltibia 17.4442
lfoot -9.23459 3.71953
ltoes -0.243452
549
root 0.63806 17.7375 6.86799 6.94703 -0.800746 -1.2746
lowerback -1.61165 -0.170551 -0.467319
upperback 2.74446 -0.26462 1.58753
thorax 3.73682 -0.170021 1.88449
lowerneck -12.7123 0.0677642 -1.46618
upperneck 26.5315 0.409717 0.137246
head 10.5997 0.0556481 0.351863
rclavicle -3.67752e-015 1.19271e-015
rhumerus -27.804 -17.3967 -77.6156
rradius 22.6787
rwrist 35.2452
rhand -19.6585 -25.4994
rfingers 7.12502
rthumb 6.66946 -55.3744
lclavicle -3.67752e-015 1.19271e-015
lhumerus -22.6651 3.60933 85.5788
lradius 17.7963
lwrist 2.52445
lhand -25.8571 -5.85418
lfingers 7.12502
lthumb 0.683729 24.1245
rfemur -13.1627 -3.02231 19.5488
rtibia 20.2806
rfoot -12.592 0.509681
rtoes 12.8262
lfemur -12.8838 7.0178 -18.0844
ltibia 17.4359
lfoot -9.235 3.71084
ltoes -0.231895
550
root 0.638552 17.7374 6.86694 6.93337 -0.798765 -1.26791
lowerback -1.62153 -0.17228 -0.471125
upperback 2.73186 -0.266682 1.5873
thorax 3.72945 -0.171036 1.88626
lowerneck -12.6671 0.0559521 -1.50836
upperneck 26.3607 0.39367 0.165961
head 10.5277 0.0486418 0.366729
rclavicle 2.68359e-015 2.98177e-015
rhumerus -27.7773 -17.3924 -77.6129
rradius 22.6806
rwrist 35.2506
rhand -19.6726 -25.5049
rfingers 7.12502
rthumb 6.65584 -55.3803
lclavicle 2.68359e-015 2.98177e-015
lhumerus -22.6819 3.54653 85.5934
lradius 17.8209
lwrist 2.56646
lhand -25.8659 -5.84572
lfingers 7.12502
lthumb 0.675285 24.133
rfemur -13.1522 -3.01726 19.5387
rtibia 20.2836
rfoot -12.5957 0.499919
rtoes 12.8271
lfemur -12.8686 7.02511 -18.0917
ltibia 17.4271
lfoot -9.23444 3.69618
ltoes -0.211506
